<?xml version="1.0" encoding="utf-8"?>
<svg version="1.0" width="1280.000000pt" height="1133.000000pt" viewBox="0 0 1280.000000 1133.000000" preserveAspectRatio="xMidYMid meet" xmlns="http://www.w3.org/2000/svg">
  <g transform="translate(0.000000,1133.000000) scale(0.100000,-0.100000)" fill="#000000" stroke="none">
    <path d="M6270 10679 c-1559 -117 -2979 -955 -3836 -2264 -128 -196 -203 -329 -315 -560 -277 -571 -430 -1131 -490 -1795 -25 -274 -13 -737 27 -1050 94 -741 370 -1484 781 -2109 103 -157 226 -325 321 -439 l60 -71 138 133 139 133 -43 54 c-257 324 -431 594 -592 924 -418 855 -562 1831 -410 2775 139 854 521 1665 1089 2312 407 463 873 823 1422 1097 501 251 988 395 1579 468 207 25 771 25 985 0 669 -80 1264 -274 1822 -595 l142 -81 216 79 c119 43 220 81 223 85 4 3 2 9 -4 13 -764 526 -1618 827 -2536 892 -170 12 -551 11 -718 -1z" style="fill: rgb(0, 13, 255);"/>
    <path d="M7332 8655 c-1866 -673 -3396 -1226 -3400 -1230 -6 -6 -74 -1151 -69 -1167 1 -3 1150 414 2552 928 1403 513 2552 934 2555 934 2 0 -1797 -1802 -4000 -4005 -2202 -2203 -4001 -4007 -3998 -4010 3 -3 870 598 1928 1336 1058 737 1928 1342 1934 1344 6 2 439 40 961 85 523 45 959 83 970 85 12 2 185 205 420 489 220 266 401 483 403 482 1 -2 -72 -207 -163 -457 -91 -249 -165 -459 -165 -465 0 -7 19 -9 53 -7 28 2 260 17 515 32 255 16 465 30 467 32 3 3 2377 6598 2436 6767 12 36 14 52 6 51 -7 -1 -1539 -552 -3405 -1224z" style="fill: rgb(255, 0, 0);"/>
    <path d="M10640 8678 c-5 -13 -41 -110 -79 -216 l-70 -193 64 -99 c400 -615 638 -1280 732 -2040 25 -208 26 -792 0 -1000 -41 -333 -113 -662 -207 -948 -496 -1509 -1721 -2654 -3262 -3052 -1032 -266 -2111 -167 -3098 285 -215 99 -490 255 -656 372 -34 24 -64 43 -68 43 -4 0 -81 -52 -173 -117 l-165 -116 23 -19 c57 -44 323 -220 424 -280 954 -561 2058 -793 3159 -662 1577 186 2975 1112 3767 2494 707 1234 857 2718 413 4075 -129 394 -332 818 -551 1155 -79 121 -233 340 -240 340 -2 0 -8 -10 -13 -22z" style="fill: rgb(0, 13, 255);"/>
  </g>
</svg>