<?xml version="1.0" encoding="utf-8"?>
<svg id="Layer_1" data-name="Layer 1" viewBox="1368.851 -3.795 101.86 90.304" xmlns="http://www.w3.org/2000/svg">
  <defs>
    <style>.cls-1{fill:#231f20;}.cls-2{fill:#813e1c;}.cls-3{fill:#1a1a1b;}</style>
  </defs>
  <polygon class="cls-1" points="60.82 49.48 56.01 62.61 66.62 62.03 88.94 0 26.91 22.32 26.33 32.93 73.16 15.78 0 88.94 35.06 64.5 49 63.29 60.82 49.48"/>
  <path class="cls-1" d="M123.24,60h-10.5l-1.6,4.83h-8.65l10.79-29.61h9.5l10.75,29.61h-8.7Zm-2.06-6.3L118,44.11l-3.15,9.58Z" transform="translate(-14.17 -14.17)"/>
  <path class="cls-1" d="M169.94,35.21V64.82h-8.23V48.48l-5.59,16.34h-6.88l-5.63-16.46V64.82h-8.23V35.21h10l7.43,19.24L160,35.21Z" transform="translate(-14.17 -14.17)"/>
  <path class="cls-1" d="M192.54,60H182l-1.6,4.83h-8.65l10.79-29.61h9.5l10.75,29.61h-8.7Zm-2.06-6.3-3.19-9.58-3.15,9.58Z" transform="translate(-14.17 -14.17)"/>
  <path class="cls-1" d="M213.66,58.14H226v6.68H204.42V58.56L216.6,41.85H204.42V35.21H226v6.26Z" transform="translate(-14.17 -14.17)"/>
  <path class="cls-1" d="M234.45,63.16a14.58,14.58,0,0,1-5.52-5.42,16,16,0,0,1,0-15.66,14.46,14.46,0,0,1,5.52-5.4,16.15,16.15,0,0,1,15.31,0,14.28,14.28,0,0,1,5.48,5.4,16.19,16.19,0,0,1,0,15.66,14.39,14.39,0,0,1-5.5,5.42,16,16,0,0,1-15.29,0Zm12.62-7.75a8,8,0,0,0,1.83-5.5,8,8,0,0,0-1.83-5.57,7.14,7.14,0,0,0-10,0,8.08,8.08,0,0,0-1.81,5.57,8,8,0,0,0,1.81,5.52,7.09,7.09,0,0,0,10,0Z" transform="translate(-14.17 -14.17)"/>
  <path class="cls-1" d="M287.54,64.82h-8.23l-11-16.55V64.82h-8.24V35.21h8.24l11,16.76V35.21h8.23Z" transform="translate(-14.17 -14.17)"/>
  <path class="cls-1" d="M294.09,62.66a8.91,8.91,0,0,1-3.57-7h8.78a3.32,3.32,0,0,0,.92,2.27,3.37,3.37,0,0,0,3.93.15,1.9,1.9,0,0,0,.74-1.58,2.22,2.22,0,0,0-1.22-2,21.25,21.25,0,0,0-3.95-1.6A35.31,35.31,0,0,1,295,51a9,9,0,0,1-3.11-2.64,7.39,7.39,0,0,1-1.32-4.56,8.26,8.26,0,0,1,1.43-4.9A8.84,8.84,0,0,1,296,35.8a14.75,14.75,0,0,1,5.71-1A13,13,0,0,1,310,37.16a8.72,8.72,0,0,1,3.3,6.79H304.3a2.64,2.64,0,0,0-.82-2,2.93,2.93,0,0,0-2-.67,2.15,2.15,0,0,0-1.51.54,2,2,0,0,0-.58,1.56,1.9,1.9,0,0,0,.65,1.45,6.23,6.23,0,0,0,1.61,1c.65.29,1.6.66,2.86,1.11a34.44,34.44,0,0,1,4.64,1.91,9.39,9.39,0,0,1,3.15,2.65,6.8,6.8,0,0,1,1.32,4.3,8.73,8.73,0,0,1-1.32,4.75,9.16,9.16,0,0,1-3.82,3.32,13.36,13.36,0,0,1-5.9,1.21A13.93,13.93,0,0,1,294.09,62.66Z" transform="translate(-14.17 -14.17)"/>
  <path class="cls-1" d="M343.67,37.08a13.15,13.15,0,0,1,5.4,5.23A15.39,15.39,0,0,1,351,50a15.24,15.24,0,0,1-1.91,7.65,13.61,13.61,0,0,1-5.42,5.27,16.78,16.78,0,0,1-8.13,1.91H323.79V35.21H335.5A17.07,17.07,0,0,1,343.67,37.08Zm-3.13,18.5A7.36,7.36,0,0,0,342.6,50a7.49,7.49,0,0,0-2.06-5.65,7.84,7.84,0,0,0-5.67-2H332v15.2h2.85A7.83,7.83,0,0,0,340.54,55.58Z" transform="translate(-14.17 -14.17)"/>
  <path class="cls-1" d="M371.29,60h-10.5l-1.6,4.83h-8.65l10.79-29.61h9.5l10.75,29.61h-8.7Zm-2.06-6.3L366,44.11l-3.15,9.58Z" transform="translate(-14.17 -14.17)"/>
  <path class="cls-1" d="M387.88,63.16a14.54,14.54,0,0,1-5.53-5.42,16.12,16.12,0,0,1,0-15.66,14.41,14.41,0,0,1,5.53-5.4,16.15,16.15,0,0,1,15.31,0,14.35,14.35,0,0,1,5.48,5.4,16.26,16.26,0,0,1,0,15.66,14.46,14.46,0,0,1-5.5,5.42,16,16,0,0,1-15.29,0Zm12.62-7.75a8,8,0,0,0,1.82-5.5,8,8,0,0,0-1.82-5.57,7.15,7.15,0,0,0-10,0,8.13,8.13,0,0,0-1.8,5.57,8,8,0,0,0,1.8,5.52,7.1,7.1,0,0,0,10,0Z" transform="translate(-14.17 -14.17)"/>
  <polygon class="cls-2" points="505.68 49.48 500.87 62.61 511.48 62.03 533.8 0 471.77 22.32 471.18 32.93 518.02 15.78 444.86 88.94 479.92 64.5 493.86 63.29 505.68 49.48"/>
  <path class="cls-3" d="M568.1,60H557.6L556,64.82h-8.65l10.79-29.61h9.49l10.76,29.61h-8.7ZM566,53.69l-3.19-9.58-3.16,9.58Z" transform="translate(-14.17 -14.17)"/>
  <path class="cls-3" d="M614.8,35.21V64.82h-8.23V48.48L601,64.82h-6.89l-5.63-16.46V64.82h-8.23V35.21h10l7.43,19.24,7.27-19.24Z" transform="translate(-14.17 -14.17)"/>
  <path class="cls-3" d="M637.4,60H626.9l-1.6,4.83h-8.65l10.79-29.61h9.49l10.76,29.61H639Zm-2.06-6.3-3.19-9.58L629,53.69Z" transform="translate(-14.17 -14.17)"/>
  <path class="cls-3" d="M658.52,58.14h12.31v6.68H649.28V58.56l12.18-16.71H649.28V35.21h21.55v6.26Z" transform="translate(-14.17 -14.17)"/>
  <path class="cls-3" d="M679.31,63.16a14.51,14.51,0,0,1-5.52-5.42,16,16,0,0,1,0-15.66,14.39,14.39,0,0,1,5.52-5.4,16.15,16.15,0,0,1,15.31,0,14.28,14.28,0,0,1,5.48,5.4,16.19,16.19,0,0,1,0,15.66,14.39,14.39,0,0,1-5.5,5.42,16,16,0,0,1-15.29,0Zm12.62-7.75a8,8,0,0,0,1.83-5.5,8,8,0,0,0-1.83-5.57,7.14,7.14,0,0,0-10,0,8.08,8.08,0,0,0-1.81,5.57A8,8,0,0,0,682,55.43a7.09,7.09,0,0,0,10,0Z" transform="translate(-14.17 -14.17)"/>
  <path class="cls-3" d="M732.4,64.82h-8.23l-11-16.55V64.82H705V35.21h8.23l11,16.76V35.21h8.23Z" transform="translate(-14.17 -14.17)"/>
  <path class="cls-3" d="M739,62.66a8.91,8.91,0,0,1-3.57-7h8.78a3.27,3.27,0,0,0,.92,2.27A3.37,3.37,0,0,0,749,58a1.89,1.89,0,0,0,.73-1.58,2.21,2.21,0,0,0-1.21-2,21.55,21.55,0,0,0-3.95-1.6A34.76,34.76,0,0,1,739.9,51a8.86,8.86,0,0,1-3.11-2.64,7.33,7.33,0,0,1-1.33-4.56,8.34,8.34,0,0,1,1.43-4.9,8.87,8.87,0,0,1,4-3.08,14.72,14.72,0,0,1,5.71-1,13,13,0,0,1,8.25,2.41A8.68,8.68,0,0,1,758.1,44h-8.94a2.68,2.68,0,0,0-.82-2,3,3,0,0,0-2-.67,2.15,2.15,0,0,0-1.51.54,2,2,0,0,0-.59,1.56,1.94,1.94,0,0,0,.65,1.45,6.29,6.29,0,0,0,1.62,1c.64.29,1.6.66,2.86,1.11A35,35,0,0,1,754,48.88a9.48,9.48,0,0,1,3.15,2.65,6.8,6.8,0,0,1,1.32,4.3,8.73,8.73,0,0,1-1.32,4.75,9.19,9.19,0,0,1-3.83,3.32,13.33,13.33,0,0,1-5.9,1.21A13.92,13.92,0,0,1,739,62.66Z" transform="translate(-14.17 -14.17)"/>
  <path class="cls-3" d="M788.53,37.08a13.15,13.15,0,0,1,5.4,5.23A15.39,15.39,0,0,1,795.82,50a15.24,15.24,0,0,1-1.91,7.65,13.68,13.68,0,0,1-5.42,5.27,16.78,16.78,0,0,1-8.13,1.91H768.64V35.21h11.72A17.07,17.07,0,0,1,788.53,37.08Zm-3.13,18.5A7.4,7.4,0,0,0,787.46,50a7.52,7.52,0,0,0-2.06-5.65,7.84,7.84,0,0,0-5.67-2h-2.86v15.2h2.86A7.83,7.83,0,0,0,785.4,55.58Z" transform="translate(-14.17 -14.17)"/>
  <path class="cls-3" d="M816.14,60h-10.5l-1.59,4.83H795.4l10.79-29.61h9.49l10.75,29.61h-8.69Zm-2-6.3-3.2-9.58-3.15,9.58Z" transform="translate(-14.17 -14.17)"/>
  <path class="cls-3" d="M832.73,63.16a14.58,14.58,0,0,1-5.52-5.42,16,16,0,0,1,0-15.66,14.46,14.46,0,0,1,5.52-5.4,16.15,16.15,0,0,1,15.31,0,14.28,14.28,0,0,1,5.48,5.4,16.19,16.19,0,0,1,0,15.66,14.32,14.32,0,0,1-5.5,5.42,16,16,0,0,1-15.29,0Zm12.63-7.75a8,8,0,0,0,1.82-5.5,8.09,8.09,0,0,0-1.82-5.57,7.15,7.15,0,0,0-10,0,8.13,8.13,0,0,0-1.81,5.57,8,8,0,0,0,1.81,5.52,7.1,7.1,0,0,0,10,0Z" transform="translate(-14.17 -14.17)"/>
  <polygon class="cls-2" points="950.53 49.48 945.73 62.61 956.33 62.03 978.65 0 916.63 22.32 916.04 32.93 962.87 15.78 889.71 88.94 924.77 64.5 938.71 63.29 950.53 49.48"/>
  <path class="cls-3" d="M1013,60h-10.5l-1.59,4.83H992.2L1003,35.21h9.49l10.75,29.61h-8.69Zm-2.06-6.3-3.19-9.58-3.15,9.58Z" transform="translate(-14.17 -14.17)"/>
  <path class="cls-3" d="M1059.66,35.21V64.82h-8.24V48.48l-5.58,16.34H1039l-5.63-16.46V64.82h-8.23V35.21h10l7.44,19.24,7.26-19.24Z" transform="translate(-14.17 -14.17)"/>
  <path class="cls-3" d="M1082.25,60h-10.5l-1.59,4.83h-8.66l10.8-29.61h9.49l10.75,29.61h-8.69Zm-2.06-6.3L1077,44.11l-3.15,9.58Z" transform="translate(-14.17 -14.17)"/>
  <path class="cls-3" d="M1103.38,58.14h12.3v6.68h-21.54V58.56l12.18-16.71h-12.18V35.21h21.54v6.26Z" transform="translate(-14.17 -14.17)"/>
  <path class="cls-3" d="M1124.17,63.16a14.54,14.54,0,0,1-5.53-5.42,15.13,15.13,0,0,1-2-7.83,15.13,15.13,0,0,1,2-7.83,14.41,14.41,0,0,1,5.53-5.4,16.15,16.15,0,0,1,15.31,0,14.35,14.35,0,0,1,5.48,5.4,16.26,16.26,0,0,1,0,15.66,14.41,14.41,0,0,1-5.51,5.42,15.94,15.94,0,0,1-15.28,0Zm12.62-7.75a8,8,0,0,0,1.82-5.5,8,8,0,0,0-1.82-5.57,7.15,7.15,0,0,0-10,0,8.13,8.13,0,0,0-1.8,5.57,8,8,0,0,0,1.8,5.52,7.1,7.1,0,0,0,10,0Z" transform="translate(-14.17 -14.17)"/>
  <path class="cls-3" d="M1177.25,64.82H1169l-11-16.55V64.82h-8.23V35.21h8.23L1169,52V35.21h8.23Z" transform="translate(-14.17 -14.17)"/>
  <path class="cls-3" d="M1183.81,62.66a8.85,8.85,0,0,1-3.57-7H1189a3.32,3.32,0,0,0,.93,2.27,3,3,0,0,0,2.06.71,3,3,0,0,0,1.87-.56,1.89,1.89,0,0,0,.73-1.58,2.22,2.22,0,0,0-1.22-2,21.25,21.25,0,0,0-4-1.6,35.31,35.31,0,0,1-4.68-1.87,9,9,0,0,1-3.11-2.64,7.39,7.39,0,0,1-1.32-4.56,8.34,8.34,0,0,1,1.43-4.9,8.87,8.87,0,0,1,4-3.08,14.72,14.72,0,0,1,5.71-1,13,13,0,0,1,8.25,2.41A8.68,8.68,0,0,1,1203,44h-9a2.64,2.64,0,0,0-.82-2,2.92,2.92,0,0,0-2-.67,2.13,2.13,0,0,0-1.51.54,2,2,0,0,0-.59,1.56,1.94,1.94,0,0,0,.65,1.45,6.13,6.13,0,0,0,1.62,1q1,.44,2.85,1.11a33.9,33.9,0,0,1,4.64,1.91,9.39,9.39,0,0,1,3.15,2.65,6.75,6.75,0,0,1,1.33,4.3,8.65,8.65,0,0,1-1.33,4.75,9.1,9.1,0,0,1-3.82,3.32,13.33,13.33,0,0,1-5.9,1.21A13.92,13.92,0,0,1,1183.81,62.66Z" transform="translate(-14.17 -14.17)"/>
  <polygon class="cls-2" points="1298.33 49.48 1293.52 62.61 1304.13 62.03 1326.45 0 1264.42 22.32 1263.84 32.93 1310.67 15.78 1237.51 88.94 1272.57 64.5 1286.51 63.29 1298.33 49.48"/>
  <path class="cls-2" d="M1407.58,79.35A37,37,0,0,1,1455.33,24l3.52-1.27a40,40,0,0,0-53.4,58.7Z" transform="translate(-14.17 -14.17)" style="fill: rgb(0, 89, 255);"/>
  <path class="cls-2" d="M1467.79,31.33l-1.23,3.41A37,37,0,0,1,1414.81,86l-2.61,1.82a40,40,0,0,0,55.59-56.46Z" transform="translate(-14.17 -14.17)" style="fill: rgb(0, 89, 255);"/>
  <polygon class="cls-2" points="1422.79 62.79 1429.46 54.71 1426.63 62.49 1434.83 61.98 1454.33 7.78 1400.13 27.29 1399.62 36.55 1440.54 21.57 1376.62 85.5 1407.25 64.14 1422.79 62.79" style="fill: rgb(255, 0, 0);"/>
</svg>